<svg width="4" height="14" viewBox="0 0 4 14" fill="none" xmlns="http://www.w3.org/2000/svg">
<path d="M2.00016 8.99935C2.91683 8.99935 3.66683 8.24935 3.66683 7.33268C3.66683 6.41602 2.91683 5.66602 2.00016 5.66602C1.0835 5.66602 0.333496 6.41602 0.333496 7.33268C0.333496 8.24935 1.0835 8.99935 2.00016 8.99935ZM2.00016 13.9993C2.91683 13.9993 3.66683 13.2493 3.66683 12.3327C3.66683 11.416 2.91683 10.666 2.00016 10.666C1.0835 10.666 0.333496 11.416 0.333496 12.3327C0.333496 13.2493 1.0835 13.9993 2.00016 13.9993ZM2.00016 3.99935C2.91683 3.99935 3.66683 3.24935 3.66683 2.33268C3.66683 1.41602 2.91683 0.666016 2.00016 0.666016C1.0835 0.666016 0.333497 1.41602 0.333497 2.33268C0.333497 3.24935 1.0835 3.99935 2.00016 3.99935Z" fill="#21252E"/>
</svg>
